<?xml version="1.0" encoding="UTF-8" standalone="no"?>
<!-- Generator: Adobe Illustrator 25.2.3, SVG Export Plug-In . SVG Version: 6.00 Build 0)  -->

<svg
   version="1.0"
   id="svg15246"
   x="0px"
   y="0px"
   width="33px"
   height="33px"
   viewBox="0 0 33 33"
   enable-background="new 0 0 33 33"
   xml:space="preserve"
   sodipodi:docname="PlugInput.svg"
   inkscape:version="1.4.2 (ebf0e940, 2025-05-08)"
   xmlns:inkscape="http://www.inkscape.org/namespaces/inkscape"
   xmlns:sodipodi="http://sodipodi.sourceforge.net/DTD/sodipodi-0.dtd"
   xmlns="http://www.w3.org/2000/svg"
   xmlns:svg="http://www.w3.org/2000/svg"><defs
   id="defs2" />
<sodipodi:namedview
   bordercolor="#666666"
   borderopacity="1.0"
   fit-margin-bottom="0"
   fit-margin-left="0"
   fit-margin-right="0"
   fit-margin-top="0"
   id="base"
   inkscape:current-layer="svg15246"
   inkscape:cx="16.503776"
   inkscape:cy="25.719621"
   inkscape:document-units="mm"
   inkscape:pagecheckerboard="0"
   inkscape:pageopacity="0.0"
   inkscape:pageshadow="2"
   inkscape:snap-bbox="true"
   inkscape:snap-bbox-midpoints="true"
   inkscape:snap-nodes="false"
   inkscape:snap-others="false"
   inkscape:window-height="861"
   inkscape:window-maximized="0"
   inkscape:window-width="1400"
   inkscape:window-x="0"
   inkscape:window-y="0"
   inkscape:zoom="23.600659"
   pagecolor="#ffffff"
   showgrid="false"
   units="px"
   inkscape:showpageshadow="2"
   inkscape:deskcolor="#d1d1d1">
	<inkscape:grid
   id="grid1322"
   type="xygrid"
   originx="0"
   originy="0"
   spacingy="1"
   spacingx="1"
   units="px" />
</sodipodi:namedview>

<path
   fill="#ffffff"
   d="m 25.53582,22.39863 c 1.10779,-1.69714 1.75739,-3.7207 1.75739,-5.89862 0,-5.97198 -4.84125,-10.81317 -10.81317,-10.81317 -5.97198,0 -10.81317,4.84119 -10.81317,10.81317 0,2.17792 0.6496,4.20148 1.75739,5.89862 l 4.197686,3.870379 c 1.648094,0.307051 -0.596889,0.152481 5.02758,0.05285 5.284678,-0.09361 3.379427,0.762653 4.900406,0.413241 z"
   id="path1"
   sodipodi:nodetypes="csssccscc" /><path
   opacity="0.2"
   enable-background="new    "
   d="m 16.48003,6.18684 c 5.6867,0 10.31317,4.62647 10.31317,10.31317 0,2.00026 -0.57958,3.94546 -1.68484,5.63924 l -3.335996,3.068294 c -1.044651,0.67223 -2.629751,1.266627 -5.028754,1.278748 -2.552862,0.0129 -3.525236,-0.232335 -4.585798,-1.017537 L 7.84294,22.12533 c -1.0965,-1.67986 -1.67608,-3.62506 -1.67608,-5.62532 0,-5.6867 4.62647,-10.31317 10.31317,-10.31317 m 0,-0.5 c -5.97198,0 -10.81317,4.84119 -10.81317,10.81317 0,2.17792 0.6496,4.20148 1.75738,5.89862 l 4.245042,3.619532 c 1.393864,1.239228 2.316276,0.989165 5.100188,1.145375 3.272173,0.183607 3.314742,-0.590176 5.514497,-1.375932 l 3.336596,-3.304232 c 1.10778,-1.69714 1.672637,-3.805443 1.672637,-5.983363 0,-5.97198 -4.84125,-10.81317 -10.81317,-10.81317 z"
   id="path2"
   sodipodi:nodetypes="csccsccscssccsccss"
   style="opacity:0.319588" />
<path
   style="fill:#000000;stroke:#f2f2f2;stroke-width:0.755906;stroke-dasharray:none;stroke-opacity:1"
   d="m 16.863936,22.668859 -6.22864,9.787862 5.932038,-1.99147 5.593064,1.864355 z"
   id="path3"
   sodipodi:nodetypes="ccccc" /></svg>
